<?xml version="1.0" standalone="no"?>
<!DOCTYPE svg PUBLIC "-//W3C//DTD SVG 20010904//EN"
 "http://www.w3.org/TR/2001/REC-SVG-20010904/DTD/svg10.dtd">
<svg version="1.0" xmlns="http://www.w3.org/2000/svg"
 width="626.000000pt" height="626.000000pt" viewBox="0 0 626.000000 626.000000"
 preserveAspectRatio="xMidYMid meet">

<g transform="translate(0.000000,626.000000) scale(0.100000,-0.100000)"
fill="#000000" stroke="none">
<path d="M1545 5415 c-14 -13 -25 -36 -25 -50 0 -17 -15 -42 -45 -73 -51 -53
-69 -100 -84 -229 -8 -61 -19 -98 -46 -148 -37 -69 -42 -94 -25 -124 12 -23
80 -51 123 -51 19 0 57 -7 86 -16 28 -8 61 -12 71 -9 25 8 25 -2 3 -28 -11
-13 -14 -21 -7 -24 61 -21 191 -142 272 -253 14 -19 44 -55 67 -80 23 -25 59
-67 79 -95 l37 -49 -25 -18 c-15 -12 -27 -33 -31 -58 -4 -22 -11 -43 -17 -46
-6 -4 -8 2 -3 16 4 13 3 20 -2 17 -5 -3 -15 -24 -23 -46 -11 -35 -11 -43 7
-73 13 -22 27 -33 41 -32 20 1 21 -1 7 -16 -21 -23 -10 -30 49 -30 42 0 59 6
106 40 l57 39 74 -90 c41 -50 93 -113 117 -140 23 -27 42 -53 42 -58 0 -5 20
-34 44 -66 25 -31 48 -69 51 -84 3 -15 33 -61 65 -102 68 -85 62 -95 -28 -50
-66 33 -110 79 -119 122 -3 16 -9 29 -14 29 -4 0 -10 12 -12 28 -2 15 -5 3 -6
-27 -2 -99 49 -155 185 -204 79 -28 81 -30 118 -160 42 -144 55 -250 66 -517
12 -315 12 -310 1 -310 -14 0 -61 100 -61 130 0 15 7 48 14 75 8 26 11 44 6
39 -5 -5 -17 -39 -27 -76 -15 -58 -16 -74 -5 -115 7 -26 25 -63 39 -81 24 -32
25 -35 13 -99 -8 -40 -13 -169 -14 -339 -1 -194 -4 -274 -12 -274 -6 0 -23 -9
-38 -21 -41 -32 -32 -72 23 -104 16 -9 8 8 -15 35 -7 9 -10 20 -6 26 12 18 54
36 63 27 11 -12 23 -278 15 -345 -6 -43 -16 -67 -43 -103 -58 -73 -53 -93 48
-186 46 -43 98 -85 114 -93 44 -22 174 -36 231 -25 85 16 99 59 25 79 -72 19
-133 137 -135 261 -1 62 1 68 31 96 43 40 53 70 53 157 0 93 21 155 62 181 41
26 65 68 73 125 l5 45 -15 -45 c-15 -47 -65 -107 -65 -79 0 19 26 157 45 239
8 36 17 77 20 92 4 20 13 28 37 33 80 17 90 81 23 140 l-22 20 19 75 c10 41
25 119 33 172 8 54 24 124 35 155 11 32 26 117 35 188 15 134 27 208 39 236 5
12 -3 18 -34 28 -23 7 -75 29 -116 51 -41 21 -71 33 -68 28 5 -7 -2 -9 -20 -4
-26 6 -26 6 -27 -51 -2 -113 -13 -112 -31 2 -10 59 -25 119 -34 133 -12 19
-13 24 -3 19 8 -3 71 -31 141 -61 71 -31 131 -56 134 -56 3 0 -4 8 -17 19
l-23 19 34 -3 c19 -2 60 -13 90 -25 30 -12 83 -24 116 -26 57 -3 63 -2 78 21
21 31 21 32 -10 39 -25 7 -24 8 30 47 31 22 56 42 56 45 0 3 -4 3 -8 0 -5 -3
-22 -2 -38 3 -24 6 -16 9 44 14 64 5 84 12 150 52 l77 46 -45 -7 c-64 -9 -47
0 45 26 92 25 134 59 192 154 l36 59 19 -23 c17 -21 22 -45 19 -95 l-1 -20 9
20 c16 33 12 78 -9 113 l-20 32 45 83 c38 70 45 93 45 138 0 76 -13 113 -59
168 -23 27 -41 55 -41 63 0 8 -12 25 -26 39 l-27 24 12 -23 c23 -44 2 -36 -65
24 -51 45 -70 70 -80 102 -16 54 -30 71 -54 65 -21 -6 -26 7 -10 23 13 13 33
238 24 288 -8 51 -25 84 -59 116 -20 19 -24 20 -19 7 5 -14 -4 -11 -37 12 -26
19 -63 33 -91 37 -54 8 -129 -3 -109 -16 17 -10 -127 -22 -186 -16 -40 4 -42
3 -33 -14 6 -11 20 -26 31 -34 20 -13 20 -14 2 -18 -15 -4 -12 -7 12 -18 17
-8 32 -15 34 -17 2 -2 -4 -11 -13 -22 -10 -11 -19 -43 -23 -77 -3 -38 -14 -73
-29 -96 -29 -45 -29 -43 -3 -67 28 -26 18 -66 -14 -56 -12 4 -74 9 -137 12
-74 4 -126 11 -145 21 -42 21 -150 19 -265 -7 -105 -23 -142 -26 -171 -11 -24
13 -24 37 -1 63 16 19 16 20 -4 9 -73 -38 -44 -112 44 -112 15 0 83 12 152 26
91 19 137 24 170 18 l45 -7 -90 -17 c-49 -10 -153 -23 -230 -29 -77 -6 -149
-13 -160 -16 -23 -6 -115 57 -115 79 0 8 16 24 36 37 46 28 74 74 74 122 0 39
-24 102 -42 113 -5 4 -3 -8 6 -24 33 -65 15 -126 -55 -184 l-41 -35 -23 21
c-13 12 -38 32 -55 45 -18 13 -48 46 -68 73 -22 29 -56 59 -82 73 -25 13 -78
47 -118 75 l-74 52 21 22 c26 28 27 52 2 66 -26 13 -52 13 -28 -1 21 -12 22
-32 1 -50 -13 -11 -20 -8 -47 23 -18 20 -64 63 -103 96 -74 63 -102 71 -150
44 -20 -10 -26 -7 -62 32 -77 83 -87 114 -86 256 1 112 3 131 26 182 30 65 27
68 -48 68 -34 0 -51 -6 -69 -25z m1615 -2814 l0 -249 -27 7 c-16 4 -27 14 -26
22 1 8 12 116 24 242 12 125 24 227 26 227 2 0 3 -112 3 -249z m140 -510 c17
-32 12 -50 -19 -66 -37 -19 -43 -10 -29 43 11 45 31 54 48 23z"/>
</g>
</svg>
